<svg xmlns="http://www.w3.org/2000/svg" viewBox="0 0 512 512">
  <rect width="512" height="512" rx="100" fill="#10b981"/>
  <g fill="#ffffff">
    <!-- Wallet icon -->
    <path d="M128 160h256c17.7 0 32 14.3 32 32v160c0 17.7-14.3 32-32 32H128c-17.7 0-32-14.3-32-32V192c0-17.7 14.3-32 32-32zm0-32c-35.3 0-64 28.7-64 64v160c0 35.3 28.7 64 64 64h256c35.3 0 64-28.7 64-64V192c0-35.3-28.7-64-64-64H128z"/>
    <!-- Money symbol -->
    <circle cx="320" cy="272" r="24" fill="#10b981"/>
    <circle cx="320" cy="272" r="16" fill="#ffffff"/>
    <!-- Card lines -->
    <rect x="144" y="208" width="160" height="16" rx="8"/>
    <rect x="144" y="240" width="120" height="16" rx="8"/>
  </g>
</svg>
